<svg width="24" height="24" viewBox="0 0 24 24" fill="none" xmlns="http://www.w3.org/2000/svg">
<path d="M12 23C18.8 23 21 16.263 21 13C20.97 11.1771 20.5747 9.37877 19.8373 7.71142C19.0999 6.04407 18.0354 4.54162 16.707 3.293C15.4818 1.96449 13.8013 1.14588 12 1C10.1987 1.14588 8.51823 1.96449 7.293 3.293C5.96456 4.54162 4.90013 6.04407 4.16273 7.71142C3.42533 9.37877 3.02995 11.1771 3 13C3 16.263 5.2 23 12 23ZM11.989 3C14.444 3.036 19 7.393 19 13C19 15.61 17.289 21 12 21C6.711 21 5 15.61 5 13C5 7.381 9.559 3.053 11.989 3ZM7.812 16.488C7.74406 16.3732 7.69977 16.246 7.68173 16.1138C7.66369 15.9817 7.67228 15.8473 7.70698 15.7185C7.74168 15.5897 7.8018 15.4691 7.88379 15.3639C7.96578 15.2587 8.06799 15.171 8.1844 15.1059C8.30081 15.0408 8.42907 14.9996 8.56163 14.9848C8.69419 14.97 8.82837 14.9819 8.95627 15.0197C9.08417 15.0576 9.20321 15.1206 9.30638 15.2052C9.40955 15.2897 9.49476 15.394 9.557 15.512C9.78046 15.9667 10.129 16.3483 10.5617 16.6119C10.9945 16.8754 11.4934 17.0101 12 17C12.2652 17 12.5196 17.1054 12.7071 17.2929C12.8946 17.4804 13 17.7348 13 18C13 18.2652 12.8946 18.5196 12.7071 18.7071C12.5196 18.8946 12.2652 19 12 19C11.1377 19.0104 10.2895 18.781 9.55005 18.3374C8.81055 17.8939 8.20882 17.2536 7.812 16.488Z" fill="#E92498"/>
</svg>
