<svg width="24" height="24" viewBox="0 0 24 24" fill="none" xmlns="http://www.w3.org/2000/svg">
<path fill-rule="evenodd" clip-rule="evenodd" d="M21 8.72727C21 13.1785 17.5635 16.8514 13.1229 17.3872C13.1243 17.4095 13.125 17.432 13.125 17.4545V19.6364H14.25C14.8713 19.6364 15.375 20.1248 15.375 20.7273C15.375 21.3298 14.8713 21.8182 14.25 21.8182H13.125V22.9091C13.125 23.5116 12.6213 24 12 24C11.3787 24 10.875 23.5116 10.875 22.9091V21.8182H9.75C9.12868 21.8182 8.625 21.3298 8.625 20.7273C8.625 20.1248 9.12868 19.6364 9.75 19.6364H10.875V17.4545C10.875 17.432 10.8757 17.4095 10.8771 17.3872C6.43649 16.8514 3 13.1785 3 8.72727C3 3.90733 7.02943 0 12 0C16.9706 0 21 3.90733 21 8.72727ZM5.25411 8.72727C5.25411 12.34 8.27435 15.2687 12 15.2687C15.7257 15.2687 18.7458 12.34 18.7458 8.72727C18.7458 5.11452 15.7257 2.1858 12 2.1858C8.27435 2.1858 5.25411 5.11452 5.25411 8.72727Z" fill="#E92498"/>
</svg>
