<svg width="18" height="24" viewBox="0 0 18 24" fill="none" xmlns="http://www.w3.org/2000/svg">
<path fill-rule="evenodd" clip-rule="evenodd" d="M18 8.72727C18 13.1785 14.5635 16.8514 10.1229 17.3872C10.1243 17.4095 10.125 17.432 10.125 17.4545V19.6364H11.25C11.8713 19.6364 12.375 20.1248 12.375 20.7273C12.375 21.3298 11.8713 21.8182 11.25 21.8182H10.125V22.9091C10.125 23.5116 9.62134 24 9 24C8.37866 24 7.875 23.5116 7.875 22.9091V21.8182H6.75C6.12868 21.8182 5.625 21.3298 5.625 20.7273C5.625 20.1248 6.12868 19.6364 6.75 19.6364H7.875V17.4545C7.875 17.432 7.87567 17.4095 7.87714 17.3872C3.43649 16.8514 0 13.1785 0 8.72727C0 3.90733 4.02943 0 9 0C13.9706 0 18 3.90733 18 8.72727ZM2.25411 8.72727C2.25411 12.34 5.27435 15.2687 9 15.2687C12.7257 15.2687 15.7458 12.34 15.7458 8.72727C15.7458 5.11452 12.7257 2.1858 9 2.1858C5.27435 2.1858 2.25411 5.11452 2.25411 8.72727Z" fill="#E92498"/>
</svg>
