<svg width="24" height="24" viewBox="0 0 24 24" fill="none" xmlns="http://www.w3.org/2000/svg">
<g clip-path="url(#clip0_6_2088)">
<path d="M1.16667 14.1667C1.16667 10.0812 1.16667 8.03841 2.43587 6.7692C3.70508 5.5 5.74782 5.5 9.83333 5.5H14.1667C18.2521 5.5 20.295 5.5 21.5641 6.7692C22.8333 8.03841 22.8333 10.0812 22.8333 14.1667C22.8333 18.2521 22.8333 20.295 21.5641 21.5641C20.295 22.8333 18.2521 22.8333 14.1667 22.8333H9.83333C5.74782 22.8333 3.70508 22.8333 2.43587 21.5641C1.16667 20.295 1.16667 18.2521 1.16667 14.1667Z" stroke="#E92498" stroke-width="2"/>
<path d="M16.3333 5.5C16.3333 3.45724 16.3333 2.43586 15.6987 1.80127C15.0641 1.16666 14.0427 1.16666 12 1.16666C9.95727 1.16666 8.93587 1.16666 8.30127 1.80127C7.66667 2.43586 7.66667 3.45724 7.66667 5.5" stroke="#E92498" stroke-width="2"/>
<path d="M13.625 14.1667H10.375M12 12.5417V15.7917" stroke="#E92498" stroke-width="2" stroke-linecap="round"/>
<path d="M12 18.5C14.3932 18.5 16.3333 16.5599 16.3333 14.1667C16.3333 11.7734 14.3932 9.83334 12 9.83334C9.60677 9.83334 7.66667 11.7734 7.66667 14.1667C7.66667 16.5599 9.60677 18.5 12 18.5Z" stroke="#E92498" stroke-width="2"/>
</g>
<defs>
<clipPath id="clip0_6_2088">
<rect width="24" height="24" fill="white"/>
</clipPath>
</defs>
</svg>
